<svg width="494" height="1024" viewBox="0 0 494 1024" fill="none" xmlns="http://www.w3.org/2000/svg">
<path d="M103.669 1003.63V1024C84.7631 996.106 68.9874 963.441 56.3418 926.004C38.3124 872.786 24.4147 810.024 14.6488 737.72C4.88288 665.416 0 590.36 0 512.551C0 398.773 9.57801 295.088 28.7343 201.497C47.8905 107.538 72.8687 40.3728 103.669 0V23.1226C88.2688 48.0803 75.6233 82.2136 65.7322 125.523C55.841 168.832 48.454 223.702 43.571 290.133C38.6881 356.565 36.2466 425.933 36.2466 498.237C36.2466 576.78 38.3125 648.166 42.4442 712.396C45.6995 763.045 49.6434 803.601 54.276 834.065C58.9086 864.895 65.1061 894.44 72.8688 922.701C80.7566 950.962 91.0233 977.938 103.669 1003.63Z" fill="white"/>
<path d="M170.303 178.374C177.564 128.092 186.704 89.3706 197.722 62.2108C208.866 34.6839 222.701 20.9204 239.228 20.9204C259.636 20.9204 275.286 40.3728 286.179 79.2774C294.443 108.272 298.574 139.286 298.574 172.318C298.574 226.638 286.93 282.793 263.642 340.783C279.293 358.767 291.125 384.459 299.138 417.858C307.151 451.257 311.157 490.529 311.157 535.673C311.157 600.27 304.146 656.241 290.123 703.587C271.843 765.247 245.363 796.077 210.681 796.077C193.528 796.077 181.821 789.838 175.561 777.359C169.426 764.88 166.359 751.484 166.359 737.17C166.359 726.526 167.799 717.167 170.678 709.092C173.683 701.018 177.251 696.981 181.383 696.981C184.513 696.981 187.706 698.449 190.961 701.385C193.09 703.22 197.91 710.01 205.422 721.755C212.935 733.133 218.131 739.923 221.01 742.125C225.643 746.162 230.588 748.181 235.847 748.181C248.618 748.181 259.698 733.683 269.089 704.688C278.604 675.693 283.362 641.376 283.362 601.738C283.362 572.743 281.171 544.482 276.789 516.955C273.533 496.401 269.965 480.803 266.084 470.159C260.7 455.478 253.313 442.265 243.923 430.52C234.532 418.409 224.954 412.353 215.188 412.353H209.179V395.837C219.07 392.166 228.961 381.706 238.852 364.456C248.868 347.206 256.13 326.469 260.637 302.245C265.145 278.021 267.399 251.412 267.399 222.417C267.399 184.614 263.329 154.151 255.191 131.028C247.178 107.538 237.162 95.7935 225.142 95.7935C205.735 95.7935 189.521 126.257 176.5 187.183L170.303 178.374Z" fill="white"/>
<path d="M390.186 23.1226V0C409.217 27.5269 425.056 60.0086 437.701 97.4452C455.605 151.031 469.44 213.976 479.206 286.28C488.972 358.216 493.855 433.273 493.855 511.449C493.855 625.227 484.277 728.912 465.121 822.503C446.09 916.462 421.112 983.627 390.186 1024V1003.63C405.586 978.305 418.232 943.989 428.123 900.68C438.139 857.738 445.526 803.051 450.284 736.619C455.167 669.821 457.609 600.27 457.609 527.966C457.609 449.789 455.543 378.403 451.411 313.806C448.281 263.157 444.337 222.601 439.579 192.138C434.947 161.675 428.749 132.313 420.986 104.052C413.224 75.7907 402.957 48.8143 390.186 23.1226Z" fill="white"/>
</svg>
