<svg width="1993" height="1024" viewBox="0 0 1993 1024" fill="none" xmlns="http://www.w3.org/2000/svg">
<path d="M162.452 278.572V584.12C162.452 642.477 162.891 678.262 163.767 691.475C164.769 704.321 166.271 713.313 168.274 718.452C170.403 723.59 172.844 726.159 175.599 726.159C179.48 726.159 183.862 723.039 188.745 716.8L191.375 736.069L139.916 798.28H131.464V691.475C116.69 738.454 105.422 768 97.6593 780.112C89.8966 792.224 81.6957 798.28 73.0566 798.28C63.4159 798.28 55.0272 790.205 47.8906 774.056C40.8792 757.54 35.9962 736.436 33.2417 710.744C30.4872 685.052 29.11 648.717 29.11 601.738V376.568C29.11 352.711 28.2335 336.195 26.4807 327.019C24.7278 317.844 22.0985 310.87 18.5928 306.099C15.2123 300.961 9.0147 298.575 0 298.942V278.572H60.2858V616.052C60.2858 663.031 63.0403 693.861 68.5493 708.542C74.1835 723.223 80.9445 730.563 88.8324 730.563C94.2161 730.563 100.289 725.609 107.05 715.699C113.936 705.789 122.074 686.887 131.464 658.994V373.265C131.464 344.637 129.649 325.368 126.018 315.458C122.512 305.181 115.125 299.676 103.857 298.942V278.572H162.452Z" fill="white"/>
<path d="M292.565 370.512C312.722 299.309 331.941 263.708 350.221 263.708C359.611 263.708 367.687 270.681 374.448 284.628C381.209 298.208 386.593 320.78 390.599 352.344C393.354 374.366 394.731 408.132 394.731 453.643V668.903C394.731 700.834 395.608 722.489 397.36 733.867C398.738 743.042 400.929 750.199 403.934 755.338C407.064 760.476 412.761 763.045 421.024 763.045V782.865H335.948V763.045H339.516C347.529 763.045 353.101 759.558 356.231 752.585C359.486 745.244 361.74 734.601 362.992 720.654C363.493 715.148 363.743 697.898 363.743 668.903V462.452C363.743 416.573 361.677 383.358 357.546 362.804C353.539 341.884 346.715 331.424 337.075 331.424C322.175 331.424 307.339 355.28 292.565 402.994V668.903C292.565 703.037 293.253 724.14 294.63 732.215C296.383 742.859 298.762 750.75 301.767 755.888C304.897 760.659 311.157 763.045 320.548 763.045V782.865H235.471V763.045H239.228C247.992 763.045 253.877 756.622 256.881 743.776C260.012 730.563 261.577 705.606 261.577 668.903V481.72C261.577 421.161 261.076 384.275 260.074 371.062C259.198 357.849 257.758 348.857 255.755 344.086C253.877 339.315 251.31 336.929 248.055 336.929C244.549 336.929 240.354 339.682 235.471 345.187L232.654 325.368L284.489 263.708H292.565V370.512Z" fill="white"/>
<path d="M523.153 112.86V278.572H563.344V317.11H523.153V644.129C523.153 676.794 524.718 698.816 527.848 710.194C531.104 721.571 535.235 727.26 540.243 727.26C544.375 727.26 548.382 723.59 552.263 716.249C556.144 708.542 559.149 697.348 561.278 682.667H568.602C564.22 718.635 558.022 745.795 550.009 764.146C541.996 782.13 533.733 791.123 525.219 791.123C519.46 791.123 513.825 786.535 508.316 777.359C502.807 767.816 498.738 754.42 496.109 737.17C493.48 719.553 492.165 692.576 492.165 656.241V317.11H464.933V298.942C471.819 290.867 478.831 277.287 485.967 258.202C493.229 238.75 499.677 215.811 505.312 189.385C508.191 175.438 512.198 149.93 517.331 112.86H523.153Z" fill="white"/>
<path d="M662.468 0C667.726 0 672.171 5.50538 675.802 16.5161C679.558 27.1599 681.436 40.1892 681.436 55.6043C681.436 71.0194 679.558 84.2323 675.802 95.243C672.171 106.254 667.726 111.759 662.468 111.759C657.209 111.759 652.702 106.254 648.946 95.243C645.19 84.2323 643.312 71.0194 643.312 55.6043C643.312 40.1892 645.127 27.1599 648.758 16.5161C652.514 5.50538 657.084 0 662.468 0ZM678.056 263.708V668.903C678.056 700.467 678.807 721.571 680.309 732.215C681.937 742.492 684.253 750.199 687.258 755.338C690.388 760.476 696.023 763.045 704.161 763.045V782.865H620.587V763.045C628.976 763.045 634.61 760.659 637.49 755.888C640.369 751.117 642.623 743.226 644.251 732.215C646.003 721.204 646.88 700.1 646.88 668.903V474.563C646.88 419.877 646.316 384.459 645.19 368.31C644.313 356.565 642.936 348.49 641.058 344.086C639.18 339.315 636.613 336.929 633.358 336.929C629.852 336.929 625.595 339.682 620.587 345.187L617.958 325.368L669.792 263.708H678.056Z" fill="white"/>
<path d="M814.178 112.86V278.572H854.368V317.11H814.178V644.129C814.178 676.794 815.743 698.816 818.873 710.194C822.128 721.571 826.26 727.26 831.268 727.26C835.4 727.26 839.406 723.59 843.288 716.249C847.169 708.542 850.174 697.348 852.302 682.667H859.627C855.245 718.635 849.047 745.795 841.034 764.146C833.021 782.13 824.757 791.123 816.244 791.123C810.484 791.123 804.85 786.535 799.341 777.359C793.832 767.816 789.763 754.42 787.134 737.17C784.504 719.553 783.19 692.576 783.19 656.241V317.11H755.958V298.942C762.844 290.867 769.855 277.287 776.992 258.202C784.254 238.75 790.702 215.811 796.336 189.385C799.216 175.438 803.222 149.93 808.356 112.86H814.178Z" fill="white"/>
<path d="M968.893 0V668.903C968.893 700.467 969.644 721.388 971.146 731.665C972.774 741.941 975.215 749.832 978.471 755.338C981.726 760.476 987.798 763.045 996.688 763.045V782.865H912.363V763.045C920.251 763.045 925.634 760.659 928.514 755.888C931.394 751.117 933.648 743.226 935.275 732.215C936.903 721.204 937.717 700.1 937.717 668.903V210.856C937.717 153.967 937.278 119.1 936.402 106.254C935.526 93.0409 934.086 84.0487 932.082 79.2774C930.204 74.5061 927.763 72.1204 924.758 72.1204C921.503 72.1204 917.371 75.0566 912.363 80.929L909.17 61.6602L960.441 0H968.893Z" fill="white"/>
<path d="M1084.17 468.508C1084.04 543.381 1090.24 602.105 1102.76 644.68C1115.28 687.254 1129.99 708.542 1146.9 708.542C1158.16 708.542 1167.93 699.55 1176.19 681.566C1184.58 663.214 1191.59 632.017 1197.23 587.974L1203.05 598.985C1200.42 649.267 1192.78 695.146 1180.14 736.619C1167.49 777.726 1151.65 798.28 1132.62 798.28C1111.96 798.28 1094.25 774.79 1079.47 727.811C1064.82 680.465 1057.5 616.969 1057.5 537.325C1057.5 451.074 1065.01 383.908 1080.04 335.828C1095.19 287.381 1114.15 263.157 1136.94 263.157C1156.22 263.157 1172.06 281.875 1184.46 319.312C1196.85 356.381 1203.05 406.113 1203.05 468.508H1084.17ZM1084.17 436.576H1163.8C1163.17 404.278 1161.86 381.523 1159.85 368.31C1156.72 347.756 1152.03 331.607 1145.77 319.862C1139.63 308.118 1133.19 302.245 1126.42 302.245C1116.03 302.245 1106.7 314.173 1098.44 338.03C1090.3 361.52 1085.55 394.368 1084.17 436.576Z" fill="white"/>
<path d="M1386.12 726.159C1377.73 751.851 1369.53 770.386 1361.52 781.763C1353.51 792.774 1344.87 798.28 1335.6 798.28C1316.82 798.28 1300.42 775.34 1286.4 729.462C1272.37 683.217 1265.36 623.943 1265.36 551.639C1265.36 479.335 1273.13 413.27 1288.65 353.445C1304.18 293.253 1324.15 263.157 1348.56 263.157C1363.71 263.157 1376.23 277.287 1386.12 305.548V212.508C1386.12 154.885 1385.62 119.467 1384.62 106.254C1383.74 93.0409 1382.3 84.0487 1380.3 79.2774C1378.3 74.5061 1375.79 72.1204 1372.79 72.1204C1369.53 72.1204 1365.21 75.0566 1359.83 80.929L1357.39 61.6602L1408.66 0H1417.11V583.019C1417.11 642.11 1417.55 678.262 1418.43 691.475C1419.43 704.321 1420.93 713.313 1422.93 718.452C1425.06 723.59 1427.5 726.159 1430.26 726.159C1433.64 726.159 1438.15 723.039 1443.78 716.8L1445.85 736.069L1394.76 798.28H1386.12V726.159ZM1386.12 687.622V427.768C1385.37 402.81 1383.12 380.054 1379.36 359.501C1375.61 338.948 1370.6 323.533 1364.34 313.256C1358.2 302.612 1352.19 297.29 1346.31 297.29C1335.29 297.29 1325.46 311.788 1316.82 340.783C1305.43 378.953 1299.73 434.741 1299.73 508.146C1299.73 582.285 1305.24 639.174 1316.26 678.813C1327.28 718.085 1339.55 737.72 1353.07 737.72C1364.46 737.72 1375.48 721.021 1386.12 687.622Z" fill="white"/>
<path d="M1602.81 1003.63V1024C1583.91 996.106 1568.13 963.441 1555.49 926.004C1537.46 872.786 1523.56 810.024 1513.79 737.72C1504.03 665.416 1499.14 590.36 1499.14 512.551C1499.14 398.773 1508.72 295.088 1527.88 201.497C1547.04 107.538 1572.01 40.3728 1602.81 0V23.1226C1587.41 48.0803 1574.77 82.2136 1564.88 125.523C1554.99 168.832 1547.6 223.702 1542.72 290.133C1537.83 356.565 1535.39 425.933 1535.39 498.237C1535.39 576.78 1537.46 648.166 1541.59 712.396C1544.84 763.045 1548.79 803.601 1553.42 834.065C1558.05 864.895 1564.25 894.44 1572.01 922.701C1579.9 950.962 1590.17 977.938 1602.81 1003.63Z" fill="white"/>
<path d="M1669.45 178.374C1676.71 128.092 1685.85 89.3706 1696.87 62.2108C1708.01 34.6839 1721.85 20.9204 1738.37 20.9204C1758.78 20.9204 1774.43 40.3728 1785.32 79.2774C1793.59 108.272 1797.72 139.286 1797.72 172.318C1797.72 226.638 1786.08 282.793 1762.79 340.783C1778.44 358.767 1790.27 384.459 1798.28 417.858C1806.3 451.257 1810.3 490.529 1810.3 535.673C1810.3 600.27 1803.29 656.241 1789.27 703.587C1770.99 765.247 1744.51 796.077 1709.83 796.077C1692.67 796.077 1680.97 789.838 1674.71 777.359C1668.57 764.88 1665.5 751.484 1665.5 737.17C1665.5 726.526 1666.94 717.167 1669.82 709.092C1672.83 701.018 1676.4 696.981 1680.53 696.981C1683.66 696.981 1686.85 698.449 1690.11 701.385C1692.23 703.22 1697.05 710.01 1704.57 721.755C1712.08 733.133 1717.28 739.923 1720.16 742.125C1724.79 746.162 1729.73 748.181 1734.99 748.181C1747.76 748.181 1758.84 733.683 1768.23 704.688C1777.75 675.693 1782.51 641.376 1782.51 601.738C1782.51 572.743 1780.32 544.482 1775.93 516.955C1772.68 496.401 1769.11 480.803 1765.23 470.159C1759.84 455.478 1752.46 442.265 1743.07 430.52C1733.68 418.409 1724.1 412.353 1714.33 412.353H1708.32V395.837C1718.21 392.166 1728.11 381.706 1738 364.456C1748.01 347.206 1755.27 326.469 1759.78 302.245C1764.29 278.022 1766.54 251.412 1766.54 222.417C1766.54 184.614 1762.47 154.151 1754.34 131.028C1746.32 107.538 1736.31 95.7935 1724.29 95.7935C1704.88 95.7935 1688.67 126.257 1675.65 187.183L1669.45 178.374Z" fill="white"/>
<path d="M1889.33 23.1226V0C1908.36 27.5269 1924.2 60.0086 1936.85 97.4452C1954.75 151.031 1968.59 213.976 1978.35 286.28C1988.12 358.216 1993 433.273 1993 511.449C1993 625.227 1983.42 728.912 1964.27 822.503C1945.23 916.462 1920.26 983.627 1889.33 1024V1003.63C1904.73 978.305 1917.38 943.989 1927.27 900.68C1937.28 857.738 1944.67 803.051 1949.43 736.619C1954.31 669.821 1956.75 600.27 1956.75 527.966C1956.75 449.789 1954.69 378.403 1950.56 313.806C1947.43 263.157 1943.48 222.601 1938.72 192.138C1934.09 161.675 1927.89 132.313 1920.13 104.052C1912.37 75.7907 1902.1 48.8143 1889.33 23.1226Z" fill="white"/>
</svg>
